<svg width="2161" height="208" viewBox="0 0 2161 208" fill="none" xmlns="http://www.w3.org/2000/svg">
<path d="M22.976 196.36H112.256L9.152 18.088V205H0.512002V3.39999H10.592L118.304 189.736V3.39999H126.944V205H22.976V196.36ZM287.279 99.592H201.743L289.871 12.04H192.527V196.36H304.271V205H183.887V3.39999H310.895L222.767 90.952H287.279V99.592ZM395.905 98.728L452.353 205H442.561L391.009 107.944L339.457 205H329.665L386.113 98.728L335.425 3.39999H345.217L391.009 89.512L436.801 3.39999H446.593L395.905 98.728ZM609.133 3.39999V12.04H541.453V205H532.812V12.04H465.133V3.39999H609.133ZM636.283 188.296H655.291V205H636.283V188.296ZM694.066 161.512C702.514 186.664 718.834 199.24 743.026 199.24C759.346 199.24 770.674 194.632 777.01 185.416C783.538 176.008 786.802 163.144 786.802 146.824V3.39999H795.442V146.824C795.442 187.528 777.97 207.88 743.026 207.88C726.514 207.88 713.746 203.752 704.722 195.496C695.89 187.24 688.882 175.912 683.698 161.512H694.066ZM845.527 53.224C845.527 34.6 850.231 21.16 859.639 12.904C869.047 4.64799 884.311 0.519989 905.431 0.519989C920.215 0.519989 932.119 4.35999 941.143 12.04C950.167 19.72 956.695 31.432 960.727 47.176L933.943 67.336H919.831L950.935 44.008C946.903 31.144 941.047 22.12 933.367 16.936C925.879 11.752 916.567 9.16 905.431 9.16C897.751 9.16 891.223 9.64 885.847 10.6C880.663 11.56 875.383 13.48 870.007 16.36C864.823 19.048 860.887 23.464 858.199 29.608C855.511 35.752 854.167 43.624 854.167 53.224C854.167 61.672 858.007 69.16 865.687 75.688C873.559 82.216 883.063 87.784 894.199 92.392C905.335 97 916.471 101.704 927.607 106.504C938.935 111.304 948.439 117.448 956.119 124.936C963.991 132.424 967.927 141.064 967.927 150.856C967.927 170.056 963.127 184.36 953.527 193.768C944.119 203.176 927.895 207.88 904.855 207.88C886.039 207.88 871.255 204.136 860.503 196.648C849.751 188.968 842.359 177.16 838.327 161.224L846.391 157.768C850.231 173.32 856.759 184.168 865.975 190.312C875.383 196.264 888.343 199.24 904.855 199.24C923.287 199.24 936.919 195.688 945.751 188.584C954.775 181.48 959.287 168.904 959.287 150.856C959.287 142.408 955.351 134.92 947.479 128.392C939.799 121.864 930.295 116.296 918.967 111.688C907.831 107.08 896.695 102.376 885.559 97.576C874.423 92.776 864.919 86.632 857.047 79.144C849.367 71.656 845.527 63.016 845.527 53.224ZM1091.9 53.224C1091.9 34.6 1096.61 21.16 1106.01 12.904C1115.42 4.64799 1130.69 0.519989 1151.81 0.519989C1166.59 0.519989 1178.49 4.35999 1187.52 12.04C1196.54 19.72 1203.07 31.432 1207.1 47.176L1180.32 67.336H1166.21L1197.31 44.008C1193.28 31.144 1187.42 22.12 1179.74 16.936C1172.25 11.752 1162.94 9.16 1151.81 9.16C1144.13 9.16 1137.6 9.64 1132.22 10.6C1127.04 11.56 1121.76 13.48 1116.38 16.36C1111.2 19.048 1107.26 23.464 1104.57 29.608C1101.89 35.752 1100.54 43.624 1100.54 53.224C1100.54 61.672 1104.38 69.16 1112.06 75.688C1119.93 82.216 1129.44 87.784 1140.57 92.392C1151.71 97 1162.85 101.704 1173.98 106.504C1185.31 111.304 1194.81 117.448 1202.49 124.936C1210.37 132.424 1214.3 141.064 1214.3 150.856C1214.3 170.056 1209.5 184.36 1199.9 193.768C1190.49 203.176 1174.27 207.88 1151.23 207.88C1132.41 207.88 1117.63 204.136 1106.88 196.648C1096.13 188.968 1088.73 177.16 1084.7 161.224L1092.77 157.768C1096.61 173.32 1103.13 184.168 1112.35 190.312C1121.76 196.264 1134.72 199.24 1151.23 199.24C1169.66 199.24 1183.29 195.688 1192.13 188.584C1201.15 181.48 1205.66 168.904 1205.66 150.856C1205.66 142.408 1201.73 134.92 1193.85 128.392C1186.17 121.864 1176.67 116.296 1165.34 111.688C1154.21 107.08 1143.07 102.376 1131.93 97.576C1120.8 92.776 1111.29 86.632 1103.42 79.144C1095.74 71.656 1091.9 63.016 1091.9 53.224ZM1379.2 3.39999V12.04H1311.52V205H1302.88V12.04H1235.2V3.39999H1379.2ZM1417.29 196.36H1523.27L1462.22 28.456L1397.99 205H1388.78L1462.22 3.11199L1535.66 205H1417.29V196.36ZM1591.79 196.36H1671.28L1636.43 100.744L1652.56 91.528C1665.8 84.232 1672.43 72.616 1672.43 56.68C1672.43 26.92 1649.77 12.04 1604.46 12.04H1577.96V205H1569.32V3.39999H1604.46C1629.8 3.39999 1648.91 8.10399 1661.77 17.512C1674.64 26.728 1681.07 39.784 1681.07 56.68C1681.07 75.88 1673 89.992 1656.88 99.016L1647.08 104.488L1683.66 205H1591.79V196.36ZM1847.48 3.39999V12.04H1779.8V205H1771.16V12.04H1703.48V3.39999H1847.48ZM1983.78 99.592H1898.24L1986.37 12.04H1889.03V196.36H2000.77V205H1880.39V3.39999H2007.4L1919.27 90.952H1983.78V99.592ZM2068.79 196.36H2148.28L2113.43 100.744L2129.56 91.528C2142.8 84.232 2149.43 72.616 2149.43 56.68C2149.43 26.92 2126.77 12.04 2081.46 12.04H2054.96V205H2046.32V3.39999H2081.46C2106.8 3.39999 2125.91 8.10399 2138.77 17.512C2151.64 26.728 2158.07 39.784 2158.07 56.68C2158.07 75.88 2150 89.992 2133.88 99.016L2124.08 104.488L2160.66 205H2068.79V196.36Z" fill="url(#paint0_linear_54_2)"/>
<defs>
<linearGradient id="paint0_linear_54_2" x1="-28" y1="104.714" x2="2177" y2="104.714" gradientUnits="userSpaceOnUse">
<stop stop-color="#FFC517"/>
<stop offset="1" stop-color="#42B883"/>
</linearGradient>
</defs>
</svg>
